<svg width="983" height="586" viewBox="0 0 983 586" fill="none" xmlns="http://www.w3.org/2000/svg">
<mask id="mask0_139_4704" style="mask-type:alpha" maskUnits="userSpaceOnUse" x="0" y="0" width="983" height="586">
<rect width="983" height="586" fill="black"/>
</mask>
<g mask="url(#mask0_139_4704)">
<path fill-rule="evenodd" clip-rule="evenodd" d="M205.287 741.949C154.081 683.293 123.063 606.567 123.063 522.599C123.063 338.275 272.529 188.852 456.905 188.852C641.28 188.852 790.746 338.275 790.746 522.599C790.746 606.567 759.728 683.293 708.522 741.949H205.287Z" fill="#FFC729"/>
<path d="M548 368H972V365.175C972 351.796 962.453 340.323 949.297 337.891C938.113 335.823 929.324 327.141 927.12 315.983L925.968 310.153C922.987 295.06 910.862 283.457 895.653 281.143L890.237 280.319C880.37 278.817 871.299 274.025 864.498 266.72C854.218 255.678 839.022 250.632 824.18 253.331L820.477 254.004C809.775 255.95 798.73 254.415 788.965 249.624L780.818 245.628C763.534 237.149 742.662 242.197 731.163 257.638L726.682 263.656C720.163 272.41 709.171 276.607 698.476 274.426C682.523 271.172 667.144 282.09 664.954 298.224L663.727 307.265C661.438 324.124 643.025 333.519 628.032 325.476C615.581 318.797 600.078 324.064 594.271 336.945L592.924 339.931C589.126 348.357 580.742 353.773 571.5 353.773H562.227C554.369 353.773 548 360.143 548 368Z" fill="white"/>
<path d="M0 493H424V488.546C424 476.111 415.127 465.447 402.899 463.187C391.111 461.008 382.379 450.993 381.825 439.019L381.366 429.085C380.49 410.134 363.217 396.23 344.516 399.421C330.21 401.862 316.083 394.236 310.273 380.937L309.909 380.103C300.661 358.935 272.99 353.745 256.7 370.122L228.067 398.908C222.982 404.02 215.042 404.946 208.917 401.142C201.936 396.806 192.785 398.677 188.066 405.406L187.49 406.227C182.513 413.325 172.9 415.378 165.457 410.933L151.274 402.461C133.9 392.084 111.427 401.26 106.282 420.832L103.715 430.595C100.512 442.783 87.4774 449.532 75.6757 445.114C65.1745 441.183 53.4249 446.075 48.8167 456.297L44.9245 464.931C41.1263 473.357 32.7424 478.773 23.5004 478.773H14.2265C6.36944 478.773 0 485.143 0 493Z" fill="white"/>
</g>
</svg>
