<svg width="746" height="585" viewBox="0 0 746 585" fill="none" xmlns="http://www.w3.org/2000/svg">
<mask id="mask0_49_4461" style="mask-type:alpha" maskUnits="userSpaceOnUse" x="0" y="0" width="746" height="585">
<rect width="746" height="585" fill="black"/>
</mask>
<g mask="url(#mask0_49_4461)">
<path fill-rule="evenodd" clip-rule="evenodd" d="M116.287 741.949C65.0811 683.293 34.0632 606.567 34.0632 522.599C34.0632 338.275 183.529 188.852 367.905 188.852C552.28 188.852 701.746 338.275 701.746 522.599C701.746 606.567 670.728 683.293 619.522 741.949H116.287Z" fill="#FFC729"/>
<path d="M459 368H883V365.175C883 351.796 873.453 340.323 860.297 337.891C849.113 335.823 840.324 327.141 838.12 315.983L836.968 310.153C833.987 295.06 821.862 283.457 806.653 281.143L801.237 280.319C791.37 278.817 782.299 274.025 775.498 266.72C765.218 255.678 750.022 250.632 735.18 253.331L731.477 254.004C720.775 255.95 709.73 254.415 699.965 249.624L691.818 245.628C674.534 237.149 653.662 242.197 642.163 257.638L637.682 263.656C631.163 272.41 620.171 276.607 609.476 274.426C593.523 271.172 578.144 282.09 575.954 298.224L574.727 307.265C572.438 324.124 554.025 333.519 539.032 325.476C526.581 318.797 511.078 324.064 505.271 336.945L503.924 339.931C500.126 348.357 491.742 353.773 482.5 353.773H473.227C465.369 353.773 459 360.143 459 368Z" fill="white"/>
<path d="M-89 493H335V488.546C335 476.111 326.127 465.447 313.899 463.187C302.111 461.008 293.379 450.993 292.825 439.019L292.366 429.085C291.49 410.134 274.217 396.23 255.516 399.421C241.21 401.862 227.083 394.236 221.273 380.937L220.909 380.103C211.661 358.935 183.99 353.745 167.7 370.122L139.067 398.908C133.982 404.02 126.042 404.946 119.917 401.142C112.936 396.806 103.785 398.677 99.0664 405.406L98.4903 406.227C93.5126 413.325 83.9 415.378 76.4569 410.933L62.274 402.461C44.9003 392.084 22.4271 401.26 17.282 420.832L14.7155 430.595C11.5116 442.783 -1.52256 449.532 -13.3243 445.114C-23.8255 441.183 -35.5751 446.075 -40.1833 456.297L-44.0755 464.931C-47.8737 473.357 -56.2576 478.773 -65.4996 478.773H-74.7735C-82.6306 478.773 -89 485.143 -89 493Z" fill="white"/>
</g>
</svg>
